:FULLY-SPECIFIED
:FORCE-ALL-JOINTS-BE-3DOF
:DEGREES
2446
root 2.43158 15.0531 -23.6365 944.607 83.2769 -133.429
lfemur -34.2742 21.5444 -14.3615
ltibia 71.9613 0 0
lfoot -24.7071 17.9347 0
ltoes -33.0087 0 0
rfemur -48.5685 -23.8276 12.9808
rtibia 58.3664 0 0
rfoot 8.13463 -0.141213 0
rtoes 2.69972 0 0
lowerback 17.4513 1.21611 -3.11604
upperback -0.367677 1.38128 3.17203
thorax -10.3158 0.949208 4.87464
lowerneck 3.84925 -13.2784 -14.9458
upperneck 0.508166 -18.4538 13.9981
head 2.23357 -9.33841 5.98219
lclavicle 6.33182e-15 4.37325e-15 0
lhumerus -28.5108 -55.5955 108.241
lradius 96.8311 0 0
lwrist 55.1156 0 0
lhand -7.20663 410.486 0
lfingers 7.12502 0 0
lthumb 18.6519 -640.637 0
rclavicle 6.33182e-15 4.37325e-15 0
rhumerus 23.1622 17.7263 -63.5021
rradius 112.764 0 0
rwrist -8.6477 0 0
rhand -25.8642 -404.064 0
rfingers 7.12502 0 0
rthumb 0.677943 286.339 0
2447
root 2.50252 15.0321 -23.6376 943.278 83.1927 -134.629
lfemur -33.8866 21.5889 -14.2068
ltibia 72.1264 0 0
lfoot -25.0676 17.9304 0
ltoes -33.3248 0 0
rfemur -48.003 -23.6099 12.3317
rtibia 57.2798 0 0
rfoot 9.12215 0.050449 0
rtoes 3.66089 0 0
lowerback 17.3521 1.08829 -3.27147
upperback -0.417271 1.18629 3.22301
thorax -10.2963 0.86662 5.07222
lowerneck 3.80256 -13.2829 -15.0176
upperneck 0.754465 -18.4698 13.8581
head 2.30866 -9.34428 5.93705
lclavicle 6.38655e-15 4.93647e-15 0
lhumerus -30.004 -55.2247 108.832
lradius 97.9443 0 0
lwrist 56.8985 0 0
lhand -6.32146 411.128 0
lfingers 7.12502 0 0
lthumb 19.5024 -640.086 0
rclavicle 6.38655e-15 4.93647e-15 0
rhumerus 21.1835 15.9487 -64.3781
rradius 112.928 0 0
rwrist -4.5262 0 0
rhand -27.1232 -404.276 0
rfingers 7.12502 0 0
rthumb -0.537286 286.134 0
2448
root 2.57346 15.0111 -23.6387 941.95 83.1084 -135.83
lfemur -33.499 21.6334 -14.052
ltibia 72.2915 0 0
lfoot -25.4282 17.9261 0
ltoes -33.641 0 0
rfemur -47.4375 -23.3921 11.6826
rtibia 56.1933 0 0
rfoot 10.1097 0.242111 0
rtoes 4.62205 0 0
lowerback 17.253 0.960464 -3.4269
upperback -0.466864 0.991306 3.274
thorax -10.2768 0.784032 5.26979
lowerneck 3.75588 -13.2873 -15.0895
upperneck 1.00076 -18.4858 13.7182
head 2.38375 -9.35015 5.8919
lclavicle 6.44127e-15 5.49969e-15 0
lhumerus -31.4971 -54.8539 109.423
lradius 99.0576 0 0
lwrist 58.6814 0 0
lhand -5.43628 411.769 0
lfingers 7.12502 0 0
lthumb 20.3528 -639.536 0
rclavicle 6.44127e-15 5.49969e-15 0
rhumerus 19.2048 14.1711 -65.2541
rradius 113.093 0 0
rwrist -0.4047 0 0
rhand -28.3821 -404.488 0
rfingers 7.12502 0 0
rthumb -1.75251 285.929 0
2449
root 2.6444 14.9901 -23.6398 940.621 83.0242 -137.03
lfemur -33.1114 21.6779 -13.8973
ltibia 72.4566 0 0
lfoot -25.7887 17.9218 0
ltoes -33.9571 0 0
rfemur -46.872 -23.1744 11.0336
rtibia 55.1067 0 0
rfoot 11.0972 0.433773 0
rtoes 5.58322 0 0
lowerback 17.1538 0.832641 -3.58233
upperback -0.516457 0.79632 3.32498
thorax -10.2573 0.701444 5.46737
lowerneck 3.70919 -13.2918 -15.1613
upperneck 1.24706 -18.5018 13.5782
head 2.45884 -9.35602 5.84676
lclavicle 6.496e-15 6.06291e-15 0
lhumerus -32.9903 -54.4831 110.014
lradius 100.171 0 0
lwrist 60.4643 0 0
lhand -4.55111 412.411 0
lfingers 7.12502 0 0
lthumb 21.2033 -638.985 0
rclavicle 6.496e-15 6.06291e-15 0
rhumerus 17.2261 12.3935 -66.1301
rradius 113.257 0 0
rwrist 3.7168 0 0
rhand -29.6411 -404.7 0
rfingers 7.12502 0 0
rthumb -2.96774 285.724 0
2450
root 2.71534 14.9691 -23.641 939.293 82.94 -138.231
lfemur -32.7238 21.7224 -13.7426
ltibia 72.6218 0 0
lfoot -26.1493 17.9175 0
ltoes -34.2733 0 0
rfemur -46.3065 -22.9567 10.3845
rtibia 54.0202 0 0
rfoot 12.0847 0.625435 0
rtoes 6.54438 0 0
lowerback 17.0547 0.704817 -3.73776
upperback -0.566051 0.601334 3.37596
thorax -10.2378 0.618856 5.66494
lowerneck 3.6625 -13.2963 -15.2332
upperneck 1.49336 -18.5178 13.4382
head 2.53393 -9.36189 5.80161
lclavicle 6.55072e-15 6.62613e-15 0
lhumerus -34.4834 -54.1124 110.605
lradius 101.284 0 0
lwrist 62.2473 0 0
lhand -3.66593 413.052 0
lfingers 7.12502 0 0
lthumb 22.0538 -638.434 0
rclavicle 6.55072e-15 6.62613e-15 0
rhumerus 15.2473 10.6159 -67.0061
rradius 113.422 0 0
rwrist 7.8383 0 0
rhand -30.9001 -404.912 0
rfingers 7.12502 0 0
rthumb -4.18297 285.519 0
2451
root 2.78629 14.9482 -23.6421 937.964 82.8557 -139.432
lfemur -32.3363 21.7668 -13.5879
ltibia 72.7869 0 0
lfoot -26.5098 17.9133 0
ltoes -34.5895 0 0
rfemur -45.7411 -22.739 9.73545
rtibia 52.9337 0 0
rfoot 13.0722 0.817097 0
rtoes 7.50555 0 0
lowerback 16.9555 0.576994 -3.89319
upperback -0.615644 0.406348 3.42694
thorax -10.2183 0.536268 5.86251
lowerneck 3.61581 -13.3008 -15.3051
upperneck 1.73966 -18.5338 13.2982
head 2.60901 -9.36776 5.75647
lclavicle 6.60545e-15 7.18935e-15 0
lhumerus -35.9766 -53.7416 111.195
lradius 102.397 0 0
lwrist 64.0302 0 0
lhand -2.78076 413.694 0
lfingers 7.12502 0 0
lthumb 22.9042 -637.883 0
rclavicle 6.60545e-15 7.18935e-15 0
rhumerus 13.2686 8.83837 -67.8822
rradius 113.586 0 0
rwrist 11.9598 0 0
rhand -32.1591 -405.124 0
rfingers 7.12502 0 0
rthumb -5.3982 285.313 0
2452
root 2.85723 14.9272 -23.6432 936.636 82.7715 -140.632
lfemur -31.9487 21.8113 -13.4331
ltibia 72.952 0 0
lfoot -26.8703 17.909 0
ltoes -34.9056 0 0
rfemur -45.1756 -22.5213 9.08639
rtibia 51.8471 0 0
rfoot 14.0598 1.00876 0
rtoes 8.46671 0 0
lowerback 16.8564 0.449171 -4.04862
upperback -0.665237 0.211362 3.47792
thorax -10.1988 0.45368 6.06009
lowerneck 3.56913 -13.3053 -15.3769
upperneck 1.98596 -18.5498 13.1582
head 2.6841 -9.37363 5.71133
lclavicle 6.66017e-15 7.75257e-15 0
lhumerus -37.4697 -53.3708 111.786
lradius 103.511 0 0
lwrist 65.8131 0 0
lhand -1.89559 414.335 0
lfingers 7.12502 0 0
lthumb 23.7547 -637.332 0
rclavicle 6.66017e-15 7.75257e-15 0
rhumerus 11.2899 7.06079 -68.7582
rradius 113.75 0 0
rwrist 16.0813 0 0
rhand -33.4181 -405.336 0
rfingers 7.12502 0 0
rthumb -6.61343 285.108 0
